<?xml version="1.0" encoding="UTF-8" standalone="no"?>
<!-- Generator: Adobe Illustrator 26.3.1, SVG Export Plug-In . SVG Version: 6.00 Build 0)  -->

<svg
   version="1.1"
   id="Calque_1"
   x="0px"
   y="0px"
   viewBox="0 0 965.09998 659.00001"
   xml:space="preserve"
   sodipodi:docname="MESR.svg"
   inkscape:version="1.1.1 (3bf5ae0d25, 2021-09-20)"
   width="965.09998"
   height="659"
   xmlns:inkscape="http://www.inkscape.org/namespaces/inkscape"
   xmlns:sodipodi="http://sodipodi.sourceforge.net/DTD/sodipodi-0.dtd"
   xmlns="http://www.w3.org/2000/svg"
   xmlns:svg="http://www.w3.org/2000/svg"><defs
   id="defs1084" /><sodipodi:namedview
   id="namedview1082"
   pagecolor="#505050"
   bordercolor="#ffffff"
   borderopacity="1"
   inkscape:pageshadow="0"
   inkscape:pageopacity="0"
   inkscape:pagecheckerboard="1"
   showgrid="false"
   inkscape:zoom="0.59121775"
   inkscape:cx="474.44449"
   inkscape:cy="333.21057"
   inkscape:window-width="1366"
   inkscape:window-height="705"
   inkscape:window-x="-8"
   inkscape:window-y="-8"
   inkscape:window-maximized="1"
   inkscape:current-layer="Calque_1"
   fit-margin-top="0"
   fit-margin-left="0"
   fit-margin-right="0"
   fit-margin-bottom="0" />
<style
   type="text/css"
   id="style955">
	.st0{fill:#273375;}
	.st1{fill:#E30613;}
	.st2{fill:#9D9D9C;}
	.st3{fill:none;}
</style>
<g
   id="Calque_1_00000034781818696827984980000017661918352660920735_"
   transform="translate(-78.4,-83.5)">
</g>
<g
   id="vect"
   inkscape:export-filename="C:\Users\mrakoton\Desktop\charte-graphique\logo_mesrt.png"
   inkscape:export-xdpi="96"
   inkscape:export-ydpi="96"
   transform="translate(-78.4,-83.5)">
	<g
   id="g964">
		<path
   d="m 289.5,720.7 c 1.7,0 3.2,1.3 2.4,4.6 l -8,1.9 c 1.5,-3.8 3.8,-6.5 5.6,-6.5 m 4.4,12.8 h -1.6 c -2,2.4 -4.1,4.2 -6.3,4.2 -2.2,0 -3.3,-1.3 -3.3,-4.2 0,-1.2 0.1,-2.4 0.4,-3.5 l 12.8,-4.2 c 2.5,-5.9 -0.5,-8.5 -4,-8.5 -6.1,0 -13,10.1 -13,19 0,4 1.9,6.2 4.9,6.2 3.5,0 7.2,-3.4 10.1,-9 m -2.5,-18.6 9,-8.4 v -1 h -4.9 l -5.6,9.4 z m -27.7,5.9 h 4.3 l -6.8,18.5 c -0.6,1.6 0.2,3.1 1.9,3.1 3.8,0 10,-3.8 12.2,-9 h -1.2 c -1.7,1.8 -5,4.2 -7.8,4.7 l 6.2,-17.4 h 6.3 l 0.8,-2.6 h -6.2 l 2.4,-6.7 h -2.5 l -4.4,6.7 -5.2,0.7 z m -5.8,-0.8 c 0.5,-1.7 -0.6,-2.7 -1.5,-2.7 -3.7,0 -8.1,3.3 -9.9,8 h 1.2 c 1.2,-1.7 3.2,-3.6 5.1,-3.9 l -7.1,18.4 c -0.6,1.7 0.6,2.7 1.5,2.7 3.5,0 7.6,-3.4 9.4,-8 h -1.2 c -1.2,1.7 -3.2,3.6 -5.1,3.9 z m 1.3,-9.3 c 1.7,0 3.1,-1.3 3.1,-3.1 0,-1.7 -1.4,-3.1 -3.1,-3.1 -1.7,0 -3.1,1.4 -3.1,3.1 0.1,1.8 1.4,3.1 3.1,3.1 M 218.4,739 c -0.9,2.1 0,3.4 2.1,3.4 1.3,0 1.8,-0.3 2.3,-1.7 l 4.9,-13 c 2.3,-2.8 6.9,-5.7 8.8,-5.7 1.3,0 1.2,1.1 0.3,2.8 l -7.5,14.5 c -0.7,1.4 0.2,3.1 1.9,3.1 3.7,0 8.1,-3.3 9.9,-8 h -1.2 c -1.2,1.7 -3.2,3.6 -5.1,3.9 l 6.5,-13.1 c 0.8,-1.7 1.3,-3.2 1.3,-4.5 0,-2.1 -1.2,-3.5 -3.4,-3.5 -3.2,0 -6.4,3.6 -10.3,8.1 v -3.4 c 0,-2.5 -0.8,-4.6 -3,-4.6 -1.4,0 -2.7,1.2 -4,2.9 v 0.5 c 2.4,-0.1 3.5,3.5 1.8,7.3 z m -0.1,-16.1 c 0.9,-3 0.4,-5.6 -1.9,-5.6 -2.7,0 -3.4,2.1 -6.2,8.1 V 722 c 0,-2.5 -0.8,-4.6 -3,-4.6 -2.6,0 -5,4 -6.8,8 h 1.2 c 1.3,-1.8 2.4,-2.9 3.3,-2.9 1.1,0 1.7,1.7 0,5.5 l -5,11.1 c -0.9,2.1 0,3.4 2.1,3.4 1.3,0 1.8,-0.3 2.3,-1.7 l 4.9,-13 c 1.4,-1.7 2.6,-3.2 4.2,-4.9 z m -28.4,-2.2 c 1.7,0 3.2,1.3 2.4,4.6 l -8,1.9 c 1.4,-3.8 3.8,-6.5 5.6,-6.5 m 4.4,12.8 h -1.6 c -2,2.4 -4.1,4.2 -6.3,4.2 -2.2,0 -3.3,-1.3 -3.3,-4.2 0,-1.2 0.1,-2.4 0.4,-3.5 l 12.8,-4.2 c 2.5,-5.9 -0.5,-8.5 -4,-8.5 -6.1,0 -13,10.1 -13,19 0,4 1.9,6.2 4.9,6.2 3.5,0 7.1,-3.4 10.1,-9 m -30.2,-12.7 h 4.3 l -6.8,18.5 c -0.6,1.6 0.2,3.1 1.9,3.1 3.8,0 10,-3.8 12.2,-9 h -1.2 c -1.7,1.8 -5,4.2 -7.8,4.7 l 6.2,-17.4 h 6.3 l 0.8,-2.6 h -6.2 l 2.4,-6.7 h -2.5 l -4.4,6.7 -5.2,0.7 z m -23.4,14.4 c 0,-5.7 6.3,-13.4 9.9,-13.4 0.8,0 1.5,0.1 2.2,0.3 l -3.7,9.9 c -2.1,2.6 -5.4,5.7 -6.9,5.7 -1,0 -1.5,-0.7 -1.5,-2.5 m 19.5,-19 -1.9,-0.1 -2.2,2.1 h -0.5 c -10.6,0 -19.7,11.9 -19.7,20.5 0,2.4 1.5,3.8 3.8,3.8 2.7,0 5.4,-3.9 8.4,-8.1 l -0.1,1.5 c -0.4,4.3 0.9,6.6 3.1,6.6 2.6,0 5,-4 6.8,-8 h -1.2 c -1.3,1.8 -2.4,2.9 -3.3,2.9 -1,0 -1.7,-1.8 0,-5.5 z m -22.5,6.7 c 0.9,-3 0.4,-5.6 -1.9,-5.6 -2.7,0 -3.4,2.1 -6.2,8.1 V 722 c 0,-2.5 -0.8,-4.6 -3,-4.6 -2.6,0 -5,4 -6.8,8 h 1.2 c 1.3,-1.8 2.4,-2.9 3.3,-2.9 1.1,0 1.7,1.7 0,5.5 l -5,11.1 c -0.9,2.1 0,3.4 2.1,3.4 1.3,0 1.8,-0.3 2.3,-1.7 l 4.9,-13 c 1.4,-1.7 2.6,-3.2 4.2,-4.9 z m -35.5,18.6 0.5,-1.4 c -6.2,-1.2 -6.9,-1.2 -4.5,-7.9 l 2.5,-6.9 h 6.8 c 3.1,0 3.1,1.3 2.6,4.6 h 1.8 l 4.1,-11.2 h -1.8 c -1.5,2.6 -2.7,4.6 -6.1,4.6 h -6.7 l 3.6,-9.8 c 1.1,-3.1 1.8,-3.8 5.9,-3.8 h 3 c 4.3,0 4.8,1.2 4.8,5.5 h 1.7 l 1.4,-7.6 H 96.3 l -0.5,1.4 c 5,1 5.4,1.5 3.1,7.9 l -5.6,15.2 c -2.3,6.3 -3.3,6.9 -9,7.9 l -0.4,1.4 z"
   id="path958" />
		<path
   d="m 227.5,662.8 c 1.7,0 3.2,1.3 2.4,4.6 l -8,1.9 c 1.4,-3.8 3.8,-6.5 5.6,-6.5 m 4.4,12.8 h -1.6 c -2,2.4 -4.1,4.2 -6.3,4.2 -2.2,0 -3.3,-1.3 -3.3,-4.2 0,-1.2 0.1,-2.4 0.4,-3.5 l 12.8,-4.2 c 2.5,-5.9 -0.5,-8.5 -4,-8.5 -6.1,0 -13,10.1 -13,19 0,4 1.9,6.2 4.9,6.2 3.5,0 7.2,-3.4 10.1,-9 m -2.5,-18.6 9,-8.4 v -1 h -4.9 L 228,657 Z m -27.7,6 h 4.3 l -6.8,18.5 c -0.6,1.6 0.2,3.1 1.9,3.1 3.8,0 10,-3.8 12.2,-9 H 212 c -1.7,1.8 -5,4.2 -7.8,4.7 l 6.2,-17.4 h 6.3 l 0.8,-2.6 h -6.2 l 2.4,-6.7 h -2.5 l -4.4,6.7 -5.2,0.7 z m -5.8,-0.9 c 0.5,-1.7 -0.6,-2.7 -1.5,-2.7 -3.7,0 -8.1,3.3 -9.9,8 h 1.2 c 1.2,-1.7 3.2,-3.6 5.1,-3.9 l -7.1,18.4 c -0.6,1.7 0.6,2.7 1.5,2.7 3.5,0 7.6,-3.4 9.4,-8 h -1.2 c -1.2,1.7 -3.2,3.6 -5.1,3.9 z m 1.3,-9.3 c 1.7,0 3.1,-1.3 3.1,-3.1 0,-1.7 -1.4,-3.1 -3.1,-3.1 -1.7,0 -3.1,1.4 -3.1,3.1 0.1,1.8 1.4,3.1 3.1,3.1 m -24.6,27.7 12.9,-33.9 -0.4,-0.5 -8.1,0.9 v 1 l 1.6,1.2 c 1.4,1.1 1,2.2 -0.3,5.6 l -10.1,26.6 c -0.7,1.4 0.2,3.1 1.9,3.1 3.7,0 7.6,-3.3 9.4,-8 h -1.2 c -1.3,1.8 -3.8,3.7 -5.7,4 m -24.5,-3.1 c 0,-5.7 6.3,-13.4 9.9,-13.4 0.8,0 1.5,0.1 2.2,0.3 l -3.7,9.9 c -2.1,2.6 -5.4,5.7 -6.9,5.7 -1,-0.1 -1.5,-0.8 -1.5,-2.5 m 19.4,-19.1 -1.9,-0.1 -2.2,2.1 H 163 c -10.6,0 -19.7,11.9 -19.7,20.5 0,2.4 1.5,3.8 3.8,3.8 2.7,0 5.4,-3.9 8.4,-8.1 l -0.1,1.5 c -0.4,4.3 0.9,6.6 3.1,6.6 2.6,0 5,-4 6.8,-8 h -1.2 c -1.3,1.8 -2.4,2.9 -3.3,2.9 -1,0 -1.7,-1.8 0,-5.5 z m -47.1,30.8 c 0,-2.5 2.4,-4 5.7,-5.3 1.1,0.6 2.8,1.2 5,1.9 3.5,1.2 4.9,1.6 4.9,2.7 0,2.3 -3.8,4 -9.1,4 -4.4,-0.1 -6.5,-1 -6.5,-3.3 m 9.6,-15 c -1.5,0 -2.1,-1.3 -2.1,-2.8 0,-4.1 2.2,-10.2 5.7,-10.2 1.5,0 2.1,1.3 2.1,2.8 0,4.1 -2.2,10.2 -5.7,10.2 m 10,12.7 c 0,-3 -2.6,-4 -6.9,-5.3 -3.7,-1.1 -5.4,-1.4 -5.4,-2.6 0,-1 0.8,-2.1 2.4,-3 6.1,-0.3 10,-5.8 10,-10.4 0,-1 -0.2,-1.8 -0.5,-2.5 h 5.1 l 0.8,-2.6 h -8.2 c -1,-0.6 -2.1,-0.9 -3.3,-0.9 -6.4,0 -10.6,5.6 -10.6,10.2 0,3.5 2.2,5.6 4.9,6.2 -3,1.3 -4.7,2.9 -4.7,4.8 0,1.1 0.4,1.8 1.3,2.5 -6.9,2 -9.7,4.4 -9.7,7.6 0,3.2 4.2,4.5 9.2,4.5 8.6,-0.1 15.6,-4.7 15.6,-8.5 M 107.7,667 c 3.1,0 3.1,1.3 2.6,4.6 h 1.8 l 4.1,-11.2 h -1.8 c -1.5,2.6 -2.7,4.6 -6.1,4.6 h -6.7 l 3.4,-9.3 c 1.1,-3.1 1.8,-3.7 5.9,-3.7 h 3 c 4.3,0 4.8,1.2 4.8,5.5 h 1.7 l 1.4,-7.6 H 96.3 l -0.5,1.4 c 5,1 5.4,1.5 3.1,7.9 l -5.6,15.2 c -2.3,6.3 -3.3,6.9 -9,7.9 l -0.4,1.4 h 28.4 l 5.1,-8.1 h -1.9 c -3.2,3.1 -7.3,6 -13,6 -7.5,0 -6.9,-0.3 -4.4,-7.2 l 2.7,-7.4 z m 3.7,-19.4 9,-6.2 v -1 h -5.5 l -5,7.2 z"
   id="path960" />
		<path
   d="m 224.5,604.9 c 1.7,0 3.2,1.3 2.4,4.6 l -8,1.9 c 1.4,-3.7 3.8,-6.5 5.6,-6.5 m 4.4,12.9 h -1.6 c -2,2.4 -4.1,4.2 -6.3,4.2 -2.2,0 -3.3,-1.3 -3.3,-4.2 0,-1.2 0.1,-2.4 0.4,-3.5 L 231,610 c 2.5,-5.9 -0.5,-8.5 -4,-8.5 -6.1,0 -13,10.1 -13,19 0,4 1.9,6.2 4.9,6.2 3.4,0 7,-3.4 10,-8.9 m -2.5,-18.7 9,-8.4 v -1 h -4.9 l -5.6,9.4 z m -26.6,6 h 3.4 l -6.8,18.5 c -0.6,1.6 0.2,3.1 1.9,3.1 3.8,0 10,-3.8 12.2,-9 h -1.2 c -1.7,1.8 -5,4.2 -7.8,4.7 l 6.2,-17.4 h 6.3 l 0.8,-2.6 h -6.2 l 2.4,-6.7 h -2.5 l -4.4,6.7 -4.4,0.7 v 2 z m -3.3,2.1 c 0.9,-3 0.4,-5.6 -1.9,-5.6 -2.7,0 -3.4,2.1 -6.2,8.1 v -3.4 c 0,-2.5 -0.8,-4.6 -3,-4.6 -2.6,0 -5,4 -6.8,8 h 1.2 c 1.3,-1.8 2.4,-2.9 3.3,-2.9 1.1,0 1.7,1.7 0,5.5 l -5,11.1 c -0.9,2.1 0,3.4 2.1,3.4 1.3,0 1.8,-0.3 2.3,-1.7 l 4.9,-13 c 1.4,-1.7 2.6,-3.2 4.2,-4.9 z m -28.4,-2.3 c 1.7,0 3.2,1.3 2.4,4.6 l -8,1.9 c 1.4,-3.7 3.7,-6.5 5.6,-6.5 m 4.4,12.9 h -1.6 c -2,2.4 -4.1,4.2 -6.3,4.2 -2.2,0 -3.3,-1.3 -3.3,-4.2 0,-1.2 0.1,-2.4 0.4,-3.5 l 12.8,-4.2 c 2.5,-5.9 -0.5,-8.5 -4,-8.5 -6.1,0 -13,10.1 -13,19 0,4 1.9,6.2 4.9,6.2 3.5,-0.1 7.1,-3.5 10.1,-9 m -31.5,5.1 c -1.3,0 -3.1,-1.2 -3.1,-2.2 0,-0.3 0.6,-1.8 1.3,-3.6 l 2.1,-5.5 c 2.2,-2.6 5.6,-5.5 7.5,-5.5 1.2,0 2,0.7 2,2.5 0,5.1 -4.7,14.3 -9.8,14.3 m 14.6,-16.3 c 0,-3.8 -1.4,-5.1 -4,-5.1 -3.2,0 -6.3,3.4 -9.4,7.6 l 7.7,-20.3 -0.4,-0.5 -8.1,0.9 v 1 l 1.6,1.2 c 1.4,1.1 1,2.3 -0.3,5.6 l -8.3,21.5 c -0.6,1.6 -1.3,3.4 -1.3,3.9 0,2.2 3,4.3 5.7,4.3 6.3,0 16.8,-11.4 16.8,-20.1 m -25.2,-2.4 c 0.5,-1.7 -0.6,-2.7 -1.5,-2.7 -3.7,0 -8.1,3.3 -9.9,8 h 1.2 c 1.2,-1.7 3.2,-3.6 5.1,-3.9 l -7.1,18.4 c -0.6,1.7 0.6,2.7 1.5,2.7 3.5,0 7.6,-3.4 9.4,-8 H 128 c -1.2,1.7 -3.2,3.6 -5.1,3.9 z m 1.3,-9.3 c 1.7,0 3.1,-1.3 3.1,-3.1 0,-1.7 -1.4,-3.1 -3.1,-3.1 -1.7,0 -3.1,1.4 -3.1,3.1 0.1,1.8 1.4,3.1 3.1,3.1 M 113,592 H 96.2 l -0.5,1.4 c 5,1 5.4,1.5 3.1,7.9 l -5.5,15.2 c -2.3,6.3 -3.3,6.9 -9,7.9 l -0.4,1.4 h 25.7 l 5.6,-9.9 h -1.9 c -3.1,3.5 -6.9,7.8 -12.5,7.8 -4.3,0 -4.8,-0.7 -2.5,-7.2 l 5.5,-15.2 c 2.3,-6.3 3.3,-6.9 9,-7.9 z"
   id="path962" />
	</g>
	<g
   id="zone">
		<g
   id="g1064">
			<path
   d="m 84.1,209.7 h 16.1 l 15.2,25.9 15.2,-25.9 h 16.1 v 63 H 134 v -44.8 l -14,23.2 h -9 L 97,227.9 v 44.8 H 84.1 Z"
   id="path966" />
			<path
   d="m 164.5,209.7 h 12.8 v 63 h -12.8 z"
   id="path968" />
			<path
   d="m 195.1,209.7 h 16.4 l 28.2,45.1 v -45.1 h 12.8 v 63 H 236 l -28.2,-45.3 v 45.3 H 195 v -63 z"
   id="path970" />
			<path
   d="M 270.2,209.7 H 283 v 63 h -12.8 z"
   id="path972" />
			<path
   d="m 304.4,255.4 c 3.8,4.9 8.8,7.7 14,7.7 5,0 8.1,-2.7 8.1,-7.3 0,-11.2 -28.8,-8.7 -28.8,-29.7 0,-10 8.2,-18.3 20.2,-18.3 9.4,0 16.7,4.2 22,10.6 l -9.4,8.4 c -3.7,-4.8 -7.8,-7.8 -12.6,-7.8 -4.4,0 -7.3,2.9 -7.3,6.6 0,11.2 28.8,8.6 28.8,30 -0.2,11.7 -9.4,18.9 -20.9,18.9 -10.6,0 -17.8,-3.9 -23.4,-10.5 z"
   id="path974" />
			<path
   d="m 346.1,209.7 h 51.7 v 11.6 h -19.4 v 51.4 h -12.8 v -51.4 h -19.4 v -11.6 z"
   id="path976" />
			<path
   d="m 409.2,209.7 h 36.7 v 10.9 H 422 v 14.6 h 20.3 v 10.9 H 422 v 15.7 h 23.9 v 10.9 h -36.7 z m 1,-17.5 h 13.1 l 10.2,12.1 h -11.7 z"
   id="path978" />
			<path
   d="m 460.9,209.7 h 19.3 c 13.9,0 22.4,7.1 22.4,18.8 0,7.6 -3.7,13.2 -10.1,16.3 l 19.8,27.9 H 497 l -16.7,-25.5 h -6.6 v 25.5 h -12.8 z m 12.8,10.9 v 15.7 h 7.2 c 5.4,0 8.5,-2.9 8.5,-8 0,-4.8 -3.2,-7.7 -8.5,-7.7 z"
   id="path980" />
			<path
   d="m 520.4,209.7 h 36.7 v 10.9 h -23.9 v 14.6 h 20.3 v 10.9 h -20.3 v 15.7 h 23.9 v 10.9 h -36.7 z"
   id="path982" />
			<path
   d="m 84.1,300.7 h 24.7 c 20,0 33.5,14.5 33.5,31.5 0,17 -13.5,31.5 -33.5,31.5 H 84.1 Z m 12.8,11.6 v 39.8 H 109 c 11.7,0 20.2,-8.7 20.2,-19.9 0,-11.2 -8.5,-19.9 -20.2,-19.9 z"
   id="path984" />
			<path
   d="m 154.8,300.7 h 36.7 v 10.9 h -23.9 v 14.6 H 188 v 10.9 h -20.3 v 15.7 h 23.9 v 10.9 h -36.7 z"
   id="path986" />
			<path
   d="M 230.2,300.7 H 243 v 51.4 h 23.9 v 11.6 h -36.7 z"
   id="path988" />
			<path
   d="m 264.4,326.6 8.1,-25.9 h 13 L 275,326.6 Z"
   id="path990" />
			<path
   d="m 295.5,300.7 h 36.7 v 10.9 h -23.9 v 14.6 h 20.3 v 10.9 h -20.3 v 15.7 h 23.9 v 10.9 h -36.7 z"
   id="path992" />
			<path
   d="m 347.2,300.7 h 16.4 l 28.2,45.1 v -45.1 h 12.8 v 63 H 388.2 L 360,318.4 v 45.3 h -12.8 z"
   id="path994" />
			<path
   d="m 426,346.4 c 3.8,4.9 8.8,7.7 14,7.7 5,0 8.1,-2.7 8.1,-7.3 0,-11.2 -28.8,-8.7 -28.8,-29.7 0,-10 8.2,-18.3 20.2,-18.3 9.4,0 16.7,4.2 22,10.6 l -9.4,8.4 c -3.7,-4.8 -7.8,-7.8 -12.6,-7.8 -4.4,0 -7.3,2.9 -7.3,6.6 0,11.2 28.8,8.6 28.8,30 -0.2,11.7 -9.4,18.9 -20.9,18.9 -10.6,0 -17.8,-3.9 -23.4,-10.5 z"
   id="path996" />
			<path
   d="m 474.6,300.7 h 36.7 v 10.9 h -23.9 v 14.6 h 20.3 v 10.9 h -20.3 v 15.7 h 23.9 v 10.9 h -36.7 z"
   id="path998" />
			<path
   d="m 526.3,300.7 h 12.8 v 63 h -12.8 z"
   id="path1000" />
			<path
   d="m 600.6,348.1 v -10.6 h -16 v -11.6 h 28.8 v 26.8 c -5.8,7.8 -15.7,12.9 -27.4,12.9 -20.4,0 -34.4,-15.3 -34.4,-33.3 0,-18 13.6,-33.3 33.5,-33.3 11.4,0 20.8,5.1 26.5,12.8 l -10.1,7.8 c -3.6,-5.1 -9.3,-8.6 -16.5,-8.6 -11.9,0 -20.3,9.3 -20.3,21.3 0,12 8.9,21.3 21.2,21.3 6,-0.1 11.1,-2.1 14.7,-5.5 z"
   id="path1002" />
			<path
   d="m 627.8,300.7 h 16.4 l 28.2,45.1 v -45.1 h 12.8 v 63 h -16.4 l -28.2,-45.3 v 45.3 h -12.8 z"
   id="path1004" />
			<path
   d="m 702.9,300.7 h 36.7 v 10.9 h -23.9 v 14.6 H 736 v 10.9 h -20.3 v 15.7 h 23.9 v 10.9 h -36.7 z"
   id="path1006" />
			<path
   d="m 754.7,300.7 h 16.1 l 15.2,25.9 15.2,-25.9 h 16.1 v 63 h -12.8 v -44.8 l -14,23.2 h -9 l -14,-23.2 v 44.8 h -12.8 z"
   id="path1008" />
			<path
   d="m 835,300.7 h 36.7 v 10.9 h -23.9 v 14.6 h 20.3 v 10.9 h -20.3 v 15.7 h 23.9 v 10.9 H 835 Z"
   id="path1010" />
			<path
   d="m 886.8,300.7 h 16.4 l 28.2,45.1 v -45.1 h 12.8 v 63 h -16.4 l -28.2,-45.3 v 45.3 h -12.8 z"
   id="path1012" />
			<path
   d="m 955.5,300.7 h 51.7 v 11.6 h -19.4 v 51.4 H 975 v -51.4 h -19.4 z"
   id="path1014" />
			<path
   d="m 87.7,437.4 c 3.8,4.9 8.8,7.7 14,7.7 5,0 8.1,-2.7 8.1,-7.3 0,-11.2 -28.8,-8.7 -28.8,-29.7 0,-10 8.2,-18.3 20.2,-18.3 9.4,0 16.7,4.2 22,10.6 l -9.4,8.4 C 110.1,404 106,401 101.2,401 c -4.4,0 -7.3,2.9 -7.3,6.6 0,11.2 28.8,8.6 28.8,30 -0.2,11.7 -9.4,18.9 -20.9,18.9 -10.6,0 -17.8,-3.9 -23.4,-10.5 z"
   id="path1016" />
			<path
   d="m 172.7,391.7 h 12.8 V 430 c 0,16.6 -9.7,26.5 -25.6,26.5 -15.7,0 -25.5,-9.9 -25.5,-26.5 v -38.3 h 12.8 v 39.4 c 0,8.5 4.8,13.4 12.8,13.4 7.8,0 12.7,-5 12.7,-13.4 z"
   id="path1018" />
			<path
   d="m 201.5,391.7 h 20.8 c 13.9,0 22.3,7.1 22.3,18.8 0,11.6 -8.5,18.7 -22.3,18.7 h -8 v 25.5 h -12.8 z m 12.8,10.9 v 15.7 h 8.5 c 5.4,0 8.6,-2.9 8.6,-8 0,-4.8 -3.2,-7.7 -8.6,-7.7 z"
   id="path1020" />
			<path
   d="m 255.4,391.7 h 36.7 v 10.9 h -23.9 v 14.6 h 20.3 v 10.9 h -20.3 v 15.7 h 23.9 v 10.9 h -36.7 z m 12.4,-5.4 10.2,-12.1 h 13.1 l -11.7,12.1 z"
   id="path1022" />
			<path
   d="m 307.1,391.7 h 19.3 c 13.9,0 22.4,7.1 22.4,18.8 0,7.6 -3.7,13.2 -10.1,16.3 l 19.8,27.9 h -15.3 l -16.7,-25.5 h -6.6 v 25.5 h -12.8 z m 12.8,10.9 v 15.7 h 7.2 c 5.4,0 8.5,-2.9 8.5,-8 0,-4.8 -3.2,-7.7 -8.5,-7.7 z"
   id="path1024" />
			<path
   d="m 366.6,391.7 h 12.8 v 63 h -12.8 z"
   id="path1026" />
			<path
   d="m 397.2,391.7 h 36.7 v 10.9 H 410 v 14.6 h 20.3 v 10.9 H 410 v 15.7 h 23.9 v 10.9 h -36.7 z"
   id="path1028" />
			<path
   d="m 485.8,391.7 h 12.8 V 430 c 0,16.6 -9.7,26.5 -25.6,26.5 -15.7,0 -25.5,-9.9 -25.5,-26.5 v -38.3 h 12.8 v 39.4 c 0,8.5 4.8,13.4 12.8,13.4 7.8,0 12.7,-5 12.7,-13.4 z"
   id="path1030" />
			<path
   d="m 514.6,391.7 h 19.3 c 13.9,0 22.4,7.1 22.4,18.8 0,7.6 -3.7,13.2 -10.1,16.3 L 566,454.7 H 550.7 L 534,429.2 h -6.6 v 25.5 h -12.8 z m 12.7,10.9 v 15.7 h 7.2 c 5.4,0 8.5,-2.9 8.5,-8 0,-4.8 -3.2,-7.7 -8.5,-7.7 z"
   id="path1032" />
			<path
   d="m 84.1,482.7 h 36.7 v 10.9 H 96.9 v 14.6 h 20.3 v 10.9 H 96.9 v 15.8 h 23.9 v 10.9 H 84.1 Z"
   id="path1034" />
			<path
   d="m 130.7,482.7 h 51.7 v 11.6 H 163 v 51.4 h -12.8 v -51.4 h -19.4 v -11.6 z"
   id="path1036" />
			<path
   d="m 217.4,482.7 h 24.7 c 20,0 33.5,14.5 33.5,31.5 0,17 -13.5,31.5 -33.5,31.5 h -24.7 z m 12.8,11.6 v 39.8 h 12.1 c 11.7,0 20.2,-8.7 20.2,-19.9 0,-11.2 -8.5,-19.9 -20.2,-19.9 z"
   id="path1038" />
			<path
   d="m 288.1,482.7 h 36.7 v 10.9 h -23.9 v 14.6 h 20.3 v 10.9 h -20.3 v 15.8 h 23.9 v 10.9 h -36.7 z"
   id="path1040" />
			<path
   d="m 363.4,482.7 h 12.8 v 51.4 h 23.9 v 11.6 h -36.7 z"
   id="path1042" />
			<path
   d="M 430.2,482.7 H 447 l 23.8,63 h -13.6 l -6,-16.4 H 426 l -6,16.4 h -13.6 z m 17,35.7 -8.6,-23.7 -8.6,23.7 z"
   id="path1044" />
			<path
   d="m 504.3,482.7 h 19.3 c 13.9,0 22.4,7.1 22.4,18.8 0,7.6 -3.7,13.2 -10.1,16.3 l 19.8,27.9 h -15.3 l -16.7,-25.5 h -6.6 v 25.5 h -12.8 z m 12.8,10.9 v 15.8 h 7.2 c 5.4,0 8.5,-2.9 8.5,-8 0,-4.8 -3.2,-7.7 -8.5,-7.7 z"
   id="path1046" />
			<path
   d="m 563.8,482.7 h 36.7 v 10.9 h -23.9 v 14.6 h 20.3 v 10.9 h -20.3 v 15.8 h 23.9 v 10.9 h -36.7 z"
   id="path1048" />
			<path
   d="m 658.6,526.9 10.1,7.7 c -5.8,7.8 -15.1,12.9 -26.5,12.9 -19.9,0 -33.5,-15.3 -33.5,-33.3 0,-18 13.6,-33.3 33.5,-33.3 11.4,0 20.8,5.1 26.5,12.8 l -10.1,7.8 c -3.6,-5.1 -9.3,-8.6 -16.5,-8.6 -11.9,0 -20.3,9.3 -20.3,21.3 0,12 8.5,21.3 20.3,21.3 7.3,0 12.9,-3.5 16.5,-8.6 z"
   id="path1050" />
			<path
   d="m 680,482.7 h 12.8 v 25.1 h 31.8 v -25.1 h 12.8 v 63 h -12.8 v -26.3 h -31.8 v 26.3 H 680 Z"
   id="path1052" />
			<path
   d="m 755.1,482.7 h 36.7 v 10.9 h -23.9 v 14.6 h 20.3 v 10.9 h -20.3 v 15.8 h 23.9 v 10.9 h -36.7 z"
   id="path1054" />
			<path
   d="m 806.9,482.7 h 19.3 c 13.9,0 22.4,7.1 22.4,18.8 0,7.6 -3.7,13.2 -10.1,16.3 l 19.8,27.9 H 843 l -16.7,-25.5 h -6.6 v 25.5 h -12.8 z m 12.8,10.9 v 15.8 h 7.2 c 5.4,0 8.5,-2.9 8.5,-8 0,-4.8 -3.2,-7.7 -8.5,-7.7 z"
   id="path1056" />
			<path
   d="m 910.3,526.9 10.1,7.7 c -5.8,7.8 -15.1,12.9 -26.5,12.9 -19.9,0 -33.5,-15.3 -33.5,-33.3 0,-18 13.6,-33.3 33.5,-33.3 11.4,0 20.8,5.1 26.5,12.8 l -10.1,7.8 c -3.6,-5.1 -9.3,-8.6 -16.5,-8.6 -11.9,0 -20.3,9.3 -20.3,21.3 0,12 8.5,21.3 20.3,21.3 7.2,0 12.9,-3.5 16.5,-8.6 z"
   id="path1058" />
			<path
   d="m 931.6,482.7 h 12.8 v 25.1 h 31.8 V 482.7 H 989 v 63 h -12.8 v -26.3 h -31.8 v 26.3 h -12.8 z"
   id="path1060" />
			<path
   d="m 1006.8,482.7 h 36.7 v 10.9 h -23.9 v 14.6 h 20.3 v 10.9 h -20.3 v 15.8 h 23.9 v 10.9 h -36.7 z"
   id="path1062" />
		</g>
	</g>
	<g
   id="g1073">
		<path
   class="st0"
   d="m 179.1,157.8 c 0.9,-0.9 1.8,-1.9 2.7,-2.8 v 0 c 1.7,-1.9 3.3,-3.7 5.3,-5.4 0.6,-0.5 1.2,-1 1.7,-1.4 0.2,-0.2 0.2,-0.5 0.3,-0.6 -0.8,0.3 -1.3,1 -2.1,1.3 -0.2,0 -0.3,-0.2 -0.2,-0.3 0.6,-0.4 1.1,-0.8 1.7,-1.3 h -0.1 c -0.2,0 -0.2,-0.2 -0.2,-0.3 -2.1,-0.3 -3.6,1.1 -5.1,2.4 -0.3,0.2 -0.6,-0.2 -0.8,-0.2 -2.4,0.8 -4.1,2.9 -6.5,3.8 0,-0.2 0,-0.2 0,-0.3 -1,0.3 -1.9,0.9 -2.9,1.1 -1.4,0.3 -2.7,0.2 -4,0.2 -1.9,0.2 -3.8,0.6 -5.8,1 -0.1,0 -0.1,0 -0.2,0 -1,0.3 -2,0.7 -3,1.2 0,0 -0.1,0 -0.1,0.1 -0.1,0.1 -0.2,0.2 -0.2,0.3 -0.3,0.4 -0.6,0.7 -1.1,0.9 -1,0.5 -1.8,1.4 -2.6,2.1 -0.1,0.1 -0.2,0.1 -0.3,0.1 -0.9,0.8 -1.7,1.6 -2.6,2.4 -0.1,0.1 -0.3,0.1 -0.5,0.1 v 0 c 0,-0.1 0.1,-0.1 0.1,-0.2 0.1,-0.2 0.3,-0.4 0.4,-0.7 0.2,-0.2 0.3,-0.5 0.5,-0.7 0.2,-0.3 0.4,-0.7 0.7,-1 0.1,-0.1 0,-0.2 0,-0.2 -0.1,-0.1 -0.1,-0.1 -0.2,-0.1 0.8,-0.8 1.7,-1.4 2.7,-2 v 0 c -0.1,0 -0.3,0 -0.2,-0.2 0.1,-0.1 0.2,-0.3 0.3,-0.4 0,0 0,-0.1 0.1,-0.1 l -0.1,-0.1 c -0.3,0.2 -0.5,0.3 -0.7,0.5 -0.4,0.3 -0.7,1 -1.3,1 0,0 -0.1,0 -0.2,0 -0.1,0 -0.1,0 -0.2,-0.1 v 0 0 0 c 0,0 0,-0.1 0.1,-0.1 l 0.1,-0.1 c 0,0 0,-0.1 0.1,-0.1 0,-0.1 0.1,-0.1 0.1,-0.2 l 0.1,-0.1 c 0.1,-0.1 0.1,-0.2 0.2,-0.3 0,-0.1 0.1,-0.1 0.1,-0.2 0.1,-0.1 0.1,-0.2 0.2,-0.3 0.1,-0.1 0,-0.2 -0.1,-0.3 0.3,-0.4 0.7,-0.7 1.1,-0.9 v 0 c 0.6,-0.3 1.2,-0.7 1.8,-1 0.1,-0.1 0.2,-0.2 0.3,-0.2 -0.9,0.3 -1.7,0.7 -2.5,1.2 0,0 -0.2,0.1 -0.3,0.1 0,0 -0.2,0.1 -0.4,-0.1 v -0.1 c 0.2,-0.3 0.6,-0.5 1,-0.8 0.2,0 0.3,0 0.3,0.2 5.1,-4 12,-3 17.9,-5.1 0.5,-0.3 1,-0.6 1.4,-1 0.8,-0.3 1.4,-1.1 2.4,-1.6 1.3,-1 2.2,-2.1 2.7,-3.6 0,-0.2 -0.2,-0.3 -0.2,-0.3 -2.1,2.2 -4.4,4 -7,5.2 -3.3,1.7 -7,1.4 -10.5,1.9 0.2,-0.3 0.5,-0.3 0.8,-0.3 0,-0.5 0.3,-0.6 0.6,-1 0.2,0 0.3,0 0.5,0 0.2,0 0.2,-0.3 0.3,-0.3 0.3,0 0.8,-0.2 0.6,-0.2 -0.5,-0.6 -1.4,0.5 -2.2,0 0.3,-0.3 0.2,-0.8 0.5,-1 0.2,0 0.5,0 0.6,0 0,-0.3 0.3,-0.6 0.3,-0.6 2.4,-1.4 4.6,-2.5 6.8,-3.8 -0.5,0 -0.8,0.5 -1.3,0.2 0.3,0 0,-0.5 0.3,-0.5 1.7,-0.5 3.2,-1.4 4.9,-2.1 -0.6,0 -1.1,0.5 -1.7,0 0.3,-0.2 0.5,-0.5 1,-0.5 0,-0.2 0,-0.3 0,-0.5 0,-0.2 0.2,-0.2 0.3,-0.2 -0.2,0 -0.3,-0.2 -0.3,-0.2 0.2,-0.3 0.6,-0.2 1,-0.5 -0.2,0 -0.5,0 -0.5,-0.2 0.5,-0.6 1.3,-0.8 2.1,-1 -0.2,-0.3 -0.6,0 -0.6,-0.3 0,-0.2 0.2,-0.2 0.3,-0.2 -0.2,0 -0.2,0 -0.3,0 -0.3,-0.2 -0.2,-0.5 -0.2,-0.6 1,-1.1 1,-2.5 1.4,-3.8 -0.2,0 -0.3,0 -0.3,-0.2 -1.6,1.7 -4.1,2.4 -6.5,3 -0.2,0 -0.6,0 -0.8,0 -0.8,0.3 -1.9,0.3 -2.7,-0.2 -0.6,-0.3 -1,-0.8 -1.6,-1.3 -1.3,-0.8 -2.5,-1.4 -4,-1.9 -4,-1.3 -8.1,-1.9 -12.2,-1.7 1.7,-1 3.7,-1 5.5,-1.6 2.7,-0.8 5.2,-1.7 8.1,-1.6 -0.5,-0.2 -1.1,0 -1.6,0 -2.2,-0.2 -4.4,0.5 -6.8,1 -1.6,0.3 -3,1 -4.6,1.3 -1,0.3 -1.4,1.3 -2.5,1.1 0,0 0,-0.3 0,-0.5 1.6,-1.9 3.5,-3.8 6,-4 2.9,-0.5 5.5,0 8.4,0.3 2.1,0.2 4,0.6 6,1.1 0.8,0 1,1.3 1.6,1.4 1,0.3 1.9,0 2.9,0.6 0,-0.3 -0.2,-0.6 0,-1 0.6,-0.6 1.4,0.2 2.1,-0.2 1.3,-0.8 -1.1,-2.2 -1.7,-3.3 0,-0.2 0.2,-0.3 0.2,-0.3 1.3,1.1 2.2,2.4 3.8,3.2 0.8,0.3 2.7,0.8 2.4,-0.2 -0.8,-1.7 -2.4,-3.2 -3.6,-4.8 0,-0.2 0,-0.5 0,-0.6 -0.3,0 -0.3,-0.2 -0.5,-0.3 0,-0.2 0,-0.5 0,-0.6 -0.6,-0.3 -0.5,-1 -0.8,-1.4 -0.5,-0.8 -0.2,-1.9 -0.5,-2.9 -0.3,-1 -0.5,-1.7 -0.6,-2.7 -0.5,-2.7 -1.1,-5.1 -1.4,-7.6 -0.3,-3 1.7,-5.4 3.2,-8.1 1.1,-1.9 2.4,-3.8 4.4,-5.1 0.5,-1.9 1.7,-3.5 3,-5.1 1.3,-1.5 3.4,-2.5 4.9,-3.2 2.2,-1 4.2,-1.6 4.2,-1.6 H 83.8 v 83.9 h 77 c 3,-2.2 6,-3.2 10.2,-5.3 2,-0.7 6.6,-2.8 8.1,-4.3 z m -24.3,-11.4 c -0.3,0 -1,0.2 -0.8,-0.2 0.2,-0.8 1.3,-0.8 1.9,-1.1 0.3,-0.2 0.8,-0.5 1.1,-0.3 0.3,0.5 0.8,0.3 1.1,0.6 -1,1 -2.2,0.5 -3.3,1 z m -24.3,-3.5 c 0,0 -0.2,-0.2 -0.2,-0.3 2.1,-2.7 3.6,-5.2 5.1,-8.1 2.1,-1.1 3.8,-2.7 5.4,-4.4 2.7,-2.9 5.5,-5.4 8.9,-7 1.3,-0.5 2.9,-0.3 4.1,0.2 -0.5,0.6 -1.3,0.5 -1.9,1 -0.2,0 -0.3,0 -0.5,-0.2 0.2,-0.2 0.2,-0.3 0.2,-0.5 -1.6,1.7 -3.8,2.5 -5.1,4.6 -1,1.6 -1.6,3.6 -3.6,4.1 -0.6,0.2 0.2,-0.5 -0.2,-0.3 -4.9,3 -8.4,6.6 -12.2,10.9 z m 13.2,-10.4 c -0.2,0.3 -0.3,0.4 -0.5,0.6 -0.2,0.3 -0.3,0.5 -0.6,0.6 -0.2,0 -0.3,0 -0.3,-0.2 0.2,-0.6 0.6,-1.3 1.3,-1.4 0.1,0 0.1,0.2 0.1,0.4 z m 7.3,23.7 c -0.1,0.2 -0.2,0.3 -0.4,0.5 0.2,0 0.3,0.1 0.2,0.2 -0.4,0.3 -0.7,0.7 -1.2,0.8 0,0 -0.1,0 -0.2,0 -0.2,0.2 -0.4,0.4 -0.6,0.6 -0.2,0.2 -1.1,0 -0.8,-0.2 0.4,-0.4 0.8,-0.7 1.2,-1.1 0.2,-0.2 0.5,-0.4 0.7,-0.6 0.1,-0.1 0.2,-0.3 0.3,-0.4 0.1,0 1,-0.1 0.8,0.2 z m -2.8,-1.3 v 0 c -0.6,0.4 -1.2,0.9 -1.8,1.2 -0.7,0.4 -1.4,0.7 -2.1,1 v 0 c -0.1,-0.1 -0.2,-0.1 -0.3,-0.1 -0.6,0.3 -1.1,0.8 -1.6,1.2 -0.1,0.1 -0.1,0.1 -0.2,0.2 v 0 0 c -0.1,0.1 -0.2,0.1 -0.2,0.2 v 0 0 c -0.1,0.1 -0.2,0.2 -0.3,0.4 -0.1,0.1 -0.1,0.2 -0.2,0.2 -0.1,0.1 -0.4,0.1 -0.3,-0.1 v 0 c -0.1,0 -0.2,0.1 -0.3,0.1 -0.1,0 -0.2,0.1 -0.2,0.1 h -0.1 -0.1 c -0.2,0.2 -0.4,0.3 -0.6,0.5 -0.3,0.3 -0.6,0.6 -0.9,1 v 0 0 c 0,0 0,0 0,0.1 0,0 0,0 -0.1,0.1 v 0 c 0,0.1 -0.1,0.1 -0.1,0.2 v 0 l -0.1,0.1 c 0,0 0,-0.1 -0.1,-0.1 v -0.1 c 0,-0.1 -0.1,-0.2 -0.1,-0.3 v 0 -0.1 c 0.2,-0.2 0.3,-0.4 0.5,-0.6 v 0 c 0.1,-0.1 0.1,-0.1 0.2,-0.2 0.1,-0.1 0.2,-0.2 0.3,-0.3 l 0.1,-0.1 c 0.2,-0.2 0.3,-0.4 0.5,-0.7 v 0 c 0,0 0,-0.1 0.1,-0.1 0.1,-0.1 0.1,-0.2 0.2,-0.3 0.1,-0.1 0.1,-0.2 0.2,-0.3 v 0 0 c 0,0 0,0 0,-0.1 0.1,-0.1 0.1,-0.2 0.2,-0.4 v 0 -0.1 c 0,-0.1 0,-0.1 0,-0.2 v 0 0 c 0,-0.1 0,-0.2 0.1,-0.2 V 157 c 0.2,-0.3 0.4,-0.6 0.6,-0.9 0,0 0,0 -0.1,0 -0.2,0.1 -0.4,0.3 -0.6,0.5 -0.2,0.1 -0.5,-0.1 -0.3,-0.2 0.1,-0.1 0.2,-0.2 0.4,-0.3 v 0 c 0.3,-0.3 0.5,-0.6 0.8,-0.8 0.2,-0.1 0.3,-0.2 0.5,-0.4 0,0 0,0 0.1,-0.1 0.1,-0.1 0.2,-0.3 0.4,-0.4 v 0 c 1.5,-1.5 4.1,-1.4 6.1,-2.3 0.8,-0.3 1.7,0.2 2.5,0 0.5,0 1,0 1.4,0.3 -1.9,0.8 -3.2,1.7 -4.5,2.5 z m 3.2,-11 c -0.2,-0.2 0.5,0 0.6,-0.3 -0.5,0 -0.8,0 -1.3,0 -0.2,0 -0.2,-0.2 -0.2,-0.3 -0.8,0.2 -1.7,0.5 -2.5,0.6 -1.1,0.3 -2.1,1.1 -3.3,1.4 -1.7,0.6 -3.2,2.1 -5.1,2.7 -0.2,0 -0.2,-0.2 -0.2,-0.3 0.2,-0.5 0.8,-0.6 1.1,-1.1 0,-0.2 0,-0.3 -0.2,-0.3 1.3,-1.7 3,-2.7 4.6,-4.1 0,-0.2 0,-0.3 0,-0.5 0.5,-0.6 1.3,-1 1.6,-1.7 0.2,-0.5 0.8,-1.1 1.6,-1.4 -0.2,-0.2 -0.5,-0.2 -0.5,-0.5 -0.6,0 -1.3,0.3 -1.9,-0.2 0.3,-0.3 0.6,-0.5 1,-0.6 -0.1,0 -0.3,-0.1 -0.4,-0.2 -0.2,-0.3 0.3,-0.7 0.8,-0.8 0.6,-0.2 1.4,-0.2 1.9,-0.6 -1.1,-0.2 -2.4,0.3 -3.5,-0.3 0.8,-2.1 2.1,-3.8 4,-4.8 0.2,0 0.5,0 0.5,0.2 0,0.8 -0.5,1.4 -1.3,1.6 1.3,0.3 2.5,0.3 3.8,1 -0.2,0.3 -0.5,0.2 -0.6,0.2 0.8,0.5 1.7,0.2 2.5,0.8 -0.5,0.5 -1,0 -1.4,0 4.9,1.4 10.1,2.5 14.3,5.7 -3.5,1.7 -7.1,2.5 -10.9,3.3 -0.5,0 -0.8,0 -1.3,-0.2 0,0.2 0,0.5 -0.2,0.5 -0.6,0 -1.1,0 -1.6,0.3 -0.4,0.2 -1.4,0.3 -1.9,-0.1 z"
   id="path1067" />
		<path
   class="st1"
   d="m 314.4,83.8 h -90.2 c 0,0 0.2,0 0.9,0.4 0.7,0.4 1.7,0.9 2.3,1.2 1.2,0.6 2.3,1.4 3,2.5 0.3,0.5 0.8,1.4 0.5,2.1 -0.3,0.8 -0.5,2.1 -1.3,2.4 -1,0.5 -2.2,0.5 -3.3,0.3 -0.6,0 -1.3,-0.2 -1.9,-0.3 2.4,1 4.6,2.1 6.2,4.3 0.2,0.3 0.8,0.5 1.4,0.5 0.2,0 0.2,0.3 0.2,0.5 -0.3,0.3 -0.6,0.5 -0.5,1 0.2,0 0.3,0 0.5,0 0.8,-0.3 0.6,-1.9 1.7,-1.4 0.8,0.5 1.1,1.6 0.6,2.4 -0.6,0.6 -1.3,1.1 -1.9,1.6 -0.2,0.3 -0.2,0.8 0,1.1 0.5,0.6 0.6,1.3 0.8,1.9 0.5,1.1 0.6,2.4 1.1,3.5 0.6,2.4 1.3,4.8 1.1,7.1 0,1.3 -0.6,2.4 -0.2,3.6 0.3,1.3 1.1,2.2 1.7,3.3 0.6,1 1.3,1.6 1.7,2.5 1,1.6 2.7,3.2 1.9,5.1 -0.5,1.1 -2.2,1 -3.3,1.6 -1,0.8 -0.2,2.1 0.3,2.9 0.8,1.4 -1,2.4 -2.1,2.9 0.3,0.5 1,0.3 1.1,0.6 0.2,0.8 1,1.3 0.5,2.1 -0.6,1 -2.5,1.4 -1.6,2.9 0.6,1.1 0.2,2.3 -0.2,3.5 -0.5,1.4 -1.7,2.1 -2.9,2.4 -1,0.3 -2.1,0.3 -3,0.2 -0.3,-0.2 -0.6,-0.3 -1,-0.3 -2.7,-0.3 -5.4,-1.1 -8.1,-1.1 -0.8,0.2 -1.6,0.3 -2.2,0.6 -0.7,0.5 -1.4,1.1 -1.9,1.7 v 0 c -0.1,0.1 -0.2,0.3 -0.3,0.4 -0.1,0.1 -0.1,0.2 -0.2,0.2 0,0.1 -0.1,0.1 -0.1,0.2 -0.5,0.6 -0.9,1.2 -1.2,1.8 0,0 0,0.1 -0.1,0.1 0,0.1 -0.1,0.1 -0.1,0.2 -0.5,1 -0.9,1.9 -1.2,2.9 -1.1,3.6 -0.6,6.7 0.1,7.5 0.2,0.2 5.2,1.8 8.7,3.3 1.6,0.7 2.8,1.3 3.7,1.9 h 88.6 V 83.8 Z"
   id="path1069" />
		<path
   class="st2"
   d="m 229.6,114.4 c 0.6,0.2 1.6,0.2 1.6,0.5 -0.3,1.3 -2.2,1.6 -3.2,2.9 h -0.5 c -0.5,0.3 -0.3,1.1 -0.8,1.1 -0.5,-0.2 -1,0 -1.4,0.2 0.6,0.6 1.4,1.1 2.4,1 0.2,0 0.5,0.3 0.5,0.6 0,0 0.2,0 0.3,-0.2 0.2,0 0.3,0 0.3,0.2 v 0.6 c -0.5,0.6 -1.3,0.3 -1.9,0.5 1.3,0.3 2.5,0.3 3.6,0 1,-0.3 0,-1.9 0.6,-2.7 -0.3,0 0,-0.5 -0.3,-0.5 0.3,-0.3 0.6,-0.8 1,-1 0.3,0 0.8,-0.2 1,-0.5 0,-0.3 -0.6,-0.5 -0.5,-0.8 1,-0.6 1.7,-1.6 1.4,-2.5 -0.2,-0.5 -1.4,-0.5 -2.2,-0.8 -0.8,-0.3 -1.7,0 -2.7,0.2 -0.8,0 -1.6,0.5 -2.4,0.6 -1.1,0.3 -2.1,1 -3,1.6 1.1,-0.5 2.2,-0.6 3.5,-1 0.9,0 1.7,-0.3 2.7,0 z"
   id="path1071" />
	</g>
</g>
<g
   id="zone_1_"
   transform="translate(-78.4,-83.5)">
	<rect
   x="0"
   y="0"
   class="st3"
   width="1104.5"
   height="825.29999"
   id="rect1076" />
	<rect
   x="83.800003"
   y="83.800003"
   class="st3"
   width="937"
   height="748.79999"
   id="rect1078" />
</g>
</svg>
